# xmcd
#
# Track frame offsets:
#	150
#	13200
#	30065
#	48967
#	64135
#	78460
#	90802
#	101067
#	111260
#	122785
#	136302
#	150505
#	165770
#	177217
#	187050
#	200907
#	215257
#	227790
#
# Disc length: 3172 seconds
#
# Revision: 0
# Processed by: cddbd v1.5.1PL0 Copyright (c) Steve Scherf et al.
# Submitted via: dBpowerAMP V4.0
#
DISCID=e50c6212
DTITLE=Various Artist - The Northern Side of Philly Soul
DYEAR=1900
DGENRE=Soul
TTITLE0=The imperial C's - Someone Tell her
TTITLE1=Pookie Hudson - This Gets to me
TTITLE2=Moses Smith - The Girl accross the Street
TTITLE3=The Rotations - D9
TTITLE4=The Volcanos - A Lady's man
TTITLE5=Kenny Gamble - The jokes on you
TTITLE6=Douglas Banks - Ain't that just like a woman
TTITLE7=Moses Smith - Try My love
TTITLE8=The Temptones - Girl I love you
TTITLE9=Benny Sigler - You you gonna turn to
TTITLE10=Tyrone Ashley - I wasnt my baby back
TTITLE11=Sunshine - Leave me
TTITLE12=Dee Irwin - Linda
TTITLE13=Douglas Banks - Never say good bye
TTITLE14=The Royal five - Five miles
TTITLE15=Benny sigler - I can give you love
TTITLE16=The impreial C's - Someone tell her - alternative version
TTITLE17=Moses Smith - Try My love - Instrumental
EXTD=
EXTT0=
EXTT1=
EXTT2=
EXTT3=
EXTT4=
EXTT5=
EXTT6=
EXTT7=
EXTT8=
EXTT9=
EXTT10=
EXTT11=
EXTT12=
EXTT13=
EXTT14=
EXTT15=
EXTT16=
EXTT17=
PLAYORDER=
